<?xml version="1.0" standalone="no"?>
<!DOCTYPE svg PUBLIC "-//W3C//DTD SVG 20010904//EN"
 "http://www.w3.org/TR/2001/REC-SVG-20010904/DTD/svg10.dtd">
<svg version="1.0" xmlns="http://www.w3.org/2000/svg"
 width="735.000000pt" height="735.000000pt" viewBox="0 0 735.000000 735.000000"
 preserveAspectRatio="xMidYMid meet">
<metadata>
Created by potrace 1.14, written by Peter Selinger 2001-2017
</metadata>
<g transform="translate(0.000000,735.000000) scale(0.100000,-0.100000)"
fill="#000000" stroke="none">
<path d="M882 6783 c-7 -3 -19 -18 -27 -33 -13 -25 -15 -381 -15 -2860 0
-3060 -3 -2872 49 -2900 14 -7 901 -10 2765 -10 l2745 0 28 24 28 24 0 2857 0
2857 -28 24 -28 24 -2752 -1 c-1514 0 -2758 -3 -2765 -6z m3078 -214 c207 -22
500 -100 709 -190 543 -233 1006 -672 1261 -1194 252 -515 330 -1079 224
-1620 -47 -242 -109 -426 -215 -638 -310 -624 -840 -1060 -1505 -1238 -251
-67 -283 -71 -630 -76 l-321 -5 -6 248 c-4 137 -7 475 -7 750 l0 502 293 5
c209 4 313 10 367 21 185 39 423 139 567 238 99 68 261 230 335 333 165 233
244 468 255 756 6 150 -4 248 -43 402 -44 174 -95 288 -203 450 -177 264 -454
472 -768 576 -170 56 -168 56 -955 56 -401 0 -728 1 -728 3 0 2 46 25 103 52
208 98 454 168 684 195 134 16 353 20 353 8 0 -5 37 -8 83 -8 145 1 467 -58
467 -85 0 -5 8 -6 19 -3 10 2 24 -1 32 -9 8 -7 24 -14 36 -15 11 -1 46 -14 76
-28 31 -14 63 -25 71 -25 9 0 16 -4 16 -10 0 -5 19 -15 43 -21 53 -16 69 -28
62 -48 -5 -13 -4 -13 6 -4 9 9 17 9 33 1 12 -7 26 -13 33 -14 18 -3 59 -34 45
-34 -7 0 -11 -4 -8 -9 4 -5 17 -8 31 -7 13 2 23 -2 22 -8 -1 -6 4 -10 11 -9 6
2 12 -2 12 -9 0 -6 3 -8 6 -5 4 4 29 -6 56 -21 36 -20 48 -32 44 -45 -4 -15
-2 -16 10 -6 13 11 18 6 15 -14 -1 -5 3 -5 9 -2 6 4 20 -1 31 -11 15 -13 17
-19 7 -26 -10 -7 -9 -8 2 -7 29 3 41 -1 35 -11 -3 -5 -2 -10 3 -10 5 0 22 -11
38 -25 16 -14 34 -25 39 -25 6 0 2 -7 -9 -15 -18 -13 -17 -14 8 -21 15 -3 30
-4 33 0 8 7 33 -13 33 -26 0 -6 -7 -7 -16 -4 -8 3 -12 2 -9 -4 3 -6 14 -10 24
-10 17 0 81 -50 81 -64 0 -4 -4 -5 -8 -2 -5 3 -9 -1 -9 -8 0 -7 8 -11 17 -9
19 5 107 -94 102 -116 -2 -8 -10 -20 -18 -28 -18 -19 -18 -34 1 -27 8 4 15 1
15 -6 0 -10 3 -10 15 0 20 17 20 -4 0 -24 -13 -13 -13 -15 5 -21 12 -4 17 -11
13 -18 -3 -7 3 -4 14 6 11 9 26 17 34 17 11 -1 10 -3 -3 -10 -10 -6 -14 -18
-11 -30 4 -14 0 -20 -11 -20 -10 0 -14 -5 -11 -10 4 -6 10 -8 14 -5 5 2 13 -6
19 -20 8 -18 8 -25 -1 -28 -7 -3 -2 -4 10 -4 15 1 19 5 13 11 -13 13 -13 26 0
26 6 0 9 -5 8 -11 -2 -6 3 -14 11 -17 8 -2 11 0 7 6 -3 6 -2 13 3 16 5 4 12 2
16 -4 3 -6 -7 -18 -24 -28 -34 -19 -44 -39 -11 -22 14 7 20 7 20 0 0 -5 5 -10
11 -10 5 0 7 4 4 10 -3 6 1 7 10 3 10 -3 12 -8 6 -12 -13 -9 -22 -61 -10 -61
6 0 7 -5 3 -12 -4 -6 -3 -8 4 -5 5 4 8 17 6 30 -3 15 -1 14 7 -6 7 -18 16 -26
26 -23 8 3 11 1 8 -4 -3 -6 -2 -10 4 -10 5 0 12 6 14 13 4 7 6 8 6 1 2 -20
-28 -39 -41 -26 -16 16 -28 15 -28 -3 0 -9 6 -12 15 -9 8 4 15 2 15 -4 0 -6
-6 -12 -12 -15 -7 -2 -10 -7 -7 -11 3 -3 16 3 29 14 27 23 38 26 21 6 -8 -10
-9 -16 -1 -21 5 -3 10 -12 9 -18 0 -9 -2 -9 -6 1 -2 6 -9 12 -14 12 -5 0 -4
-9 3 -19 7 -11 15 -18 19 -16 3 3 5 -7 3 -20 -1 -14 2 -27 6 -30 5 -3 6 -13 3
-23 -6 -14 -4 -15 9 -4 13 10 16 9 20 -6 5 -16 1 -19 -23 -16 -22 3 -27 0 -22
-11 4 -11 0 -14 -13 -9 -18 5 -18 5 0 -6 14 -10 20 -10 26 0 4 7 16 9 29 5 28
-9 27 -28 -1 -21 -13 3 -17 3 -10 0 6 -3 9 -11 5 -17 -4 -6 0 -8 10 -4 12 5
17 1 17 -12 0 -11 6 -22 13 -24 6 -3 2 -6 -10 -6 -12 -1 -25 4 -28 9 -3 6 -1
10 6 10 7 0 10 2 7 5 -3 3 -13 2 -23 -1 -16 -6 -16 -8 -1 -16 13 -7 14 -13 6
-23 -10 -12 -6 -13 19 -5 29 8 30 7 20 -11 -5 -11 -14 -17 -18 -15 -4 3 -8 -1
-8 -9 0 -7 11 -19 24 -26 25 -13 31 -29 11 -29 -6 0 -3 -6 8 -14 18 -14 18
-15 1 -12 -10 1 -23 9 -28 17 -5 8 -9 10 -9 4 1 -17 27 -45 35 -37 4 4 5 -4 2
-18 -5 -22 -5 -23 7 -8 7 10 16 15 19 12 7 -7 -26 -42 -35 -37 -4 2 -5 -3 -2
-12 4 -9 12 -14 19 -11 8 3 16 -2 19 -10 3 -9 1 -12 -4 -9 -6 3 -10 2 -10 -4
0 -5 8 -11 18 -13 13 -3 10 -8 -15 -21 -30 -16 -53 -39 -36 -36 4 1 15 1 23 0
13 -1 13 -3 1 -10 -12 -8 -12 -12 -2 -24 10 -13 9 -16 -7 -21 -11 -4 -22 -15
-25 -26 -3 -13 -1 -17 9 -13 8 3 11 10 7 17 -3 6 -3 8 2 4 4 -4 15 -2 24 4 9
7 5 1 -7 -14 -23 -25 -23 -27 -5 -38 10 -7 12 -10 3 -7 -20 6 -45 -19 -27 -27
9 -3 9 -7 -2 -14 -11 -8 -9 -11 9 -17 15 -5 19 -10 12 -17 -12 -12 -4 -40 9
-32 5 3 9 0 9 -5 0 -14 -13 -14 -26 -1 -6 6 -10 3 -10 -10 0 -11 4 -20 8 -20
5 0 3 -9 -4 -19 -10 -17 -9 -24 7 -43 16 -17 16 -20 3 -9 -15 11 -18 11 -18
-2 0 -8 -6 -18 -12 -20 -8 -3 -5 -6 6 -6 16 -1 16 -3 -5 -19 -17 -15 -19 -21
-9 -27 9 -6 11 -4 5 5 -5 8 -4 11 3 6 6 -4 9 -13 6 -21 -4 -8 -10 -12 -15 -9
-5 3 -6 -2 -3 -10 4 -10 1 -16 -9 -16 -8 0 -18 -7 -21 -16 -5 -14 -4 -15 9 -4
12 10 15 10 15 -4 0 -9 -10 -21 -22 -26 -20 -8 -11 -15 14 -11 4 0 5 -6 1 -15
-3 -8 -11 -13 -18 -10 -8 3 -16 -1 -19 -9 -3 -10 0 -12 12 -9 9 3 6 -2 -8 -10
-23 -14 -20 -21 5 -16 6 1 7 -2 2 -6 -4 -4 1 -17 10 -28 13 -15 10 -14 -10 3
-26 24 -53 23 -29 -1 7 -7 12 -16 12 -22 0 -5 -3 -6 -6 -3 -4 4 -19 0 -33 -8
-14 -8 -52 -24 -83 -36 -101 -36 -191 -111 -319 -264 -128 -153 -199 -217
-299 -269 -83 -43 -263 -104 -335 -112 -31 -4 -58 -10 -60 -14 -3 -4 7 -40 20
-81 14 -40 25 -76 25 -80 0 -4 -20 1 -44 11 -60 27 -172 41 -269 34 -45 -3
-127 -1 -182 4 -55 6 -103 7 -106 4 -7 -8 7 -274 16 -311 5 -21 -6 -13 -64 43
l-70 70 -35 -76 c-61 -132 -80 -217 -81 -358 0 -148 15 -208 76 -299 33 -49
101 -113 157 -147 2 -1 -4 -16 -12 -33 -9 -16 -16 -33 -16 -37 0 -14 296 5
389 26 210 45 533 171 704 274 304 182 577 453 756 749 305 505 407 1147 271
1712 -110 462 -318 843 -630 1156 -299 300 -674 518 -1066 619 -479 124 -981
99 -1458 -71 -605 -217 -1108 -701 -1345 -1296 -189 -475 -227 -976 -110
-1450 106 -431 320 -807 635 -1113 130 -127 191 -177 202 -166 3 4 12 34 19
67 19 93 76 200 145 275 107 114 98 145 98 -325 l0 -410 -87 50 c-169 98 -296
190 -452 328 -219 194 -460 532 -581 812 -147 342 -207 603 -217 944 -7 227 6
379 48 588 114 566 411 1062 864 1444 394 333 926 541 1475 577 80 5 340 -3
450 -15z m-1715 -98 c39 -7 38 -7 -35 -19 -133 -23 -349 -111 -395 -162 -17
-19 -19 -18 -64 20 -25 21 -71 50 -101 64 l-54 25 47 21 c130 58 419 82 602
51z m3094 -25 c201 -56 342 -138 497 -290 234 -231 353 -556 329 -901 -4 -59
-9 -104 -12 -102 -2 3 -9 38 -14 79 -23 171 -98 371 -194 517 -36 56 -70 101
-76 101 -6 0 -7 4 -4 10 3 5 -58 74 -137 153 -222 223 -369 311 -672 404 -143
43 -156 49 -125 55 19 4 97 5 174 3 112 -3 159 -9 234 -29z m774 2 c53 -28 64
-92 22 -133 -50 -51 -135 -17 -135 54 0 68 58 109 113 79z m-4829 -20 c24 -34
20 -85 -9 -113 -72 -73 -178 28 -114 109 28 35 100 38 123 4z m294 -174 c74
-31 132 -108 132 -178 0 -45 -39 -115 -83 -150 -34 -27 -47 -31 -101 -31 -82
0 -133 32 -170 106 -31 62 -33 109 -7 164 42 91 136 128 229 89z m3996 -209
c-2 -14 0 -25 6 -25 5 0 10 5 10 10 0 6 4 10 8 10 5 0 9 -7 9 -15 0 -8 -4 -15
-9 -15 -5 0 -6 -4 -3 -10 12 -19 -10 -10 -40 16 -24 21 -26 25 -10 22 11 -1
20 3 21 10 2 18 4 22 8 22 3 0 3 -11 0 -25z m51 -75 c3 -6 -1 -7 -9 -4 -18 7
-21 14 -7 14 6 0 13 -4 16 -10z m-4328 -120 c17 -14 39 -30 49 -36 17 -10 16
-15 -23 -75 -72 -111 -146 -299 -158 -402 -15 -127 -33 -62 -34 124 -1 167 29
330 81 433 l20 39 17 -30 c10 -16 32 -40 48 -53z m1170 -1048 l2 -1058 -99
-48 c-250 -122 -466 -297 -596 -484 -26 -37 -51 -71 -56 -76 -11 -13 -86 151
-100 218 -37 176 156 563 359 719 80 61 108 73 179 80 143 12 239 92 280 233
30 105 5 213 -72 302 -82 97 -239 127 -356 69 -98 -48 -155 -131 -174 -253 -8
-51 18 -156 51 -206 l25 -37 -113 -113 c-117 -116 -209 -241 -249 -337 -28
-68 -34 -56 -49 90 -21 210 4 500 61 716 115 432 322 770 640 1051 83 73 244
192 259 192 4 0 7 -476 8 -1058z m1616 909 c464 -90 846 -450 967 -911 31
-122 39 -341 15 -481 -69 -413 -362 -755 -773 -903 -152 -54 -246 -67 -529
-73 -144 -3 -268 -3 -275 -1 -10 4 -12 37 -10 142 l3 136 183 0 c215 0 318 15
447 65 133 51 223 108 314 199 184 183 275 402 275 661 0 188 -47 346 -149
501 -106 160 -251 280 -437 358 -132 55 -153 58 -511 63 l-333 5 0 -1790 c0
-984 -3 -1817 -7 -1852 -5 -48 -9 -60 -17 -49 -44 56 -272 139 -383 139 l-53
0 0 1906 0 1906 608 -5 c389 -3 628 -9 665 -16z m-1404 -1956 c0 -1087 -4
-1921 -9 -1910 -12 28 -12 3874 0 3855 6 -9 9 -735 9 -1945z m3261 1913 c0 -5
-5 -8 -11 -8 -6 0 -8 -9 -3 -22 6 -22 6 -22 -14 2 -13 16 -17 29 -11 36 5 6 5
14 1 19 -4 4 3 1 16 -6 12 -8 22 -17 22 -21z m-566 -339 c-3 -5 -10 -7 -15 -3
-5 3 -7 10 -3 15 3 5 10 7 15 3 5 -3 7 -10 3 -15z m36 -59 c0 -5 -7 -7 -15 -4
-8 4 -12 10 -9 15 6 11 24 2 24 -11z m50 -61 c0 -5 -4 -9 -8 -9 -5 0 -9 7 -9
15 0 8 4 12 9 9 4 -3 8 -9 8 -15z m35 -9 c3 -5 -1 -10 -9 -10 -9 0 -16 5 -16
10 0 6 4 10 9 10 6 0 13 -4 16 -10z m-1671 -15 c38 -8 113 -36 165 -61 214
-104 351 -315 351 -540 l0 -72 -58 24 c-96 38 -187 49 -304 35 -175 -22 -314
-84 -439 -199 l-56 -51 -5 432 c-3 237 -3 435 -1 440 8 13 275 7 347 -8z
m1741 -124 c-6 -5 -25 10 -25 20 0 5 6 4 14 -3 8 -7 12 -15 11 -17z m60 -171
c-3 -5 -11 -10 -16 -10 -6 0 -7 5 -4 10 3 6 11 10 16 10 6 0 7 -4 4 -10z m49
-236 c5 -14 4 -15 -9 -4 -17 14 -19 20 -6 20 5 0 12 -7 15 -16z m-3474 -69
c72 -37 94 -127 45 -191 -61 -80 -176 -70 -219 20 -21 45 -13 96 22 138 41 49
98 61 152 33z m2010 -214 c20 -6 44 -17 54 -24 18 -13 18 -16 -10 -68 -36 -66
-133 -166 -198 -204 -115 -67 -164 -78 -370 -83 l-189 -4 39 72 c89 165 242
282 419 320 50 11 208 5 255 -9z m1634 -311 c1 -229 -33 -449 -100 -653 -94
-284 -335 -403 -599 -294 -27 11 -52 22 -54 24 -2 1 16 24 40 50 25 27 73 89
108 140 84 123 168 201 276 254 47 23 89 47 94 53 27 36 153 423 186 571 28
129 27 126 38 75 5 -25 10 -124 11 -220z m-154 190 c0 -5 -5 -10 -11 -10 -5 0
-7 5 -4 10 3 6 8 10 11 10 2 0 4 -4 4 -10z m3 -27 c-7 -2 -19 -2 -25 0 -7 3
-2 5 12 5 14 0 19 -2 13 -5z m-3 -117 c0 -3 -4 -8 -10 -11 -5 -3 -10 -1 -10 4
0 6 5 11 10 11 6 0 10 -2 10 -4z m-3230 -905 l0 -319 -57 -32 c-32 -18 -91
-65 -130 -103 -40 -39 -74 -67 -74 -64 -1 4 -2 10 -3 15 -4 21 -26 46 -33 38
-4 -5 -2 -11 5 -13 6 -3 12 -11 12 -19 0 -10 -6 -8 -21 7 -19 19 -20 22 -4 39
11 13 13 20 5 25 -7 4 -14 -2 -17 -14 -8 -30 -21 -26 -25 7 -4 33 50 118 129
204 57 63 60 71 39 123 -19 45 -56 69 -95 60 -38 -8 -152 -129 -224 -237 -29
-43 -55 -78 -58 -78 -3 0 -23 25 -43 56 l-37 55 27 47 c78 134 238 306 377
405 59 42 199 117 219 117 4 0 8 -144 8 -319z m2652 -254 c163 -80 240 -82
389 -11 l74 36 -25 -28 c-14 -16 -34 -36 -45 -45 -86 -73 -153 -137 -165 -158
-5 -11 -45 -37 -87 -58 -74 -37 -80 -38 -182 -38 -137 0 -192 21 -287 108 -58
53 -144 165 -144 187 0 4 37 17 83 30 45 12 87 24 92 26 6 2 53 2 105 1 91 -3
99 -5 192 -50z m-3836 -259 c224 -234 312 -401 415 -793 42 -163 99 -292 169
-385 48 -64 61 -69 216 -69 80 -1 120 4 189 24 48 14 97 32 108 40 19 13 19
14 -9 20 -166 38 -254 79 -341 159 -99 90 -158 197 -209 376 -2 8 14 -6 36
-31 49 -57 194 -182 278 -238 35 -24 59 -47 55 -53 -3 -6 -1 -8 5 -4 14 8 62
-14 62 -29 0 -6 -5 -16 -12 -23 -7 -7 -8 -12 -4 -12 5 0 15 8 22 18 13 16 15
16 28 0 7 -10 19 -18 26 -18 7 0 10 -7 7 -15 -4 -8 -1 -17 5 -21 7 -4 8 -3 4
4 -11 17 9 15 24 -3 7 -8 20 -15 30 -15 28 0 104 -37 88 -43 -7 -3 0 -6 16 -6
21 -1 27 -5 22 -17 -3 -8 -2 -12 4 -9 5 3 19 -5 31 -17 l21 -23 -11 23 c-6 12
-17 22 -23 22 -6 0 -8 3 -5 7 4 3 16 -2 27 -12 11 -10 20 -14 20 -10 0 5 6 1
13 -10 8 -10 19 -15 25 -11 6 3 13 2 16 -3 5 -8 63 -25 79 -22 4 0 7 -6 7 -14
0 -8 5 -15 11 -15 5 0 8 4 5 9 -4 5 5 4 18 -2 13 -7 22 -16 19 -21 -4 -5 -1
-6 5 -2 7 4 22 9 34 11 21 4 22 3 6 -9 -26 -20 -22 -23 25 -19 32 2 38 0 25
-7 -9 -6 -15 -17 -12 -24 6 -16 -120 -65 -256 -99 -72 -18 -114 -22 -275 -22
-168 0 -200 3 -279 24 -220 58 -346 131 -524 305 -197 193 -281 332 -338 561
-22 86 -27 136 -35 355 -5 140 -12 268 -15 284 l-7 29 30 -21 c16 -11 74 -67
129 -124z m3109 81 c113 -21 161 -50 280 -173 94 -96 119 -116 170 -136 69
-26 206 -37 272 -22 51 12 49 7 -19 -46 -353 -272 -659 -299 -866 -77 -90 95
-156 250 -178 413 l-7 52 145 0 c79 0 171 -5 203 -11z m1751 -256 c22 -128 15
-371 -15 -488 -25 -100 -107 -276 -173 -371 -212 -307 -602 -461 -1013 -399
-129 19 -248 54 -407 117 -129 51 -156 70 -95 67 81 -4 322 63 438 121 48 25
121 72 284 184 69 48 171 95 262 121 279 81 493 267 591 515 32 81 61 229 63
319 l1 56 24 -73 c13 -39 31 -116 40 -169z m-2172 -148 c32 -31 70 -86 100
-143 52 -98 92 -140 173 -181 23 -11 52 -21 63 -21 36 0 17 -24 -36 -44 -35
-14 -75 -20 -139 -20 -79 -1 -98 3 -153 28 -112 52 -171 147 -180 292 -4 70 9
191 24 215 4 7 75 -53 148 -126z m2184 -931 c68 -76 -31 -186 -112 -123 -21
16 -26 29 -26 63 0 88 81 124 138 60z m-4873 1 c32 -31 34 -86 5 -115 -47 -47
-140 -11 -140 55 0 77 83 113 135 60z m2620 -10 c162 -26 313 -76 505 -168
l95 -45 -810 0 -810 0 110 53 c309 150 627 206 910 160z m-1005 -27 c-30 -11
-45 1 -23 17 13 10 21 10 31 2 11 -9 10 -12 -8 -19z"/>
<path d="M5334 5395 c3 -21 16 -31 16 -12 0 9 -4 18 -9 21 -5 4 -8 -1 -7 -9z"/>
<path d="M5291 5384 c0 -11 3 -14 6 -6 3 7 2 16 -1 19 -3 4 -6 -2 -5 -13z"/>
<path d="M5577 4865 c3 -8 9 -12 14 -9 12 7 11 11 -5 17 -10 4 -13 1 -9 -8z"/>
<path d="M1836 3618 c-22 -31 -20 -64 4 -88 26 -26 60 -25 88 0 44 41 16 110
-43 110 -24 0 -39 -7 -49 -22z"/>
<path d="M2405 1580 c4 -6 11 -8 16 -5 14 9 11 15 -7 15 -8 0 -12 -5 -9 -10z"/>
<path d="M1452 578 c-17 -17 -17 -359 0 -376 18 -18 56 -14 68 7 5 11 10 62
10 113 l0 93 113 -113 c62 -61 118 -112 124 -112 7 0 17 9 23 19 13 26 13 336
0 362 -12 22 -52 25 -68 6 -6 -7 -13 -58 -14 -113 l-3 -99 -50 50 c-28 28 -76
78 -107 113 -57 63 -74 72 -96 50z"/>
<path d="M1952 578 c-8 -8 -12 -63 -12 -183 0 -216 -9 -205 156 -205 127 0
144 6 144 46 0 43 -24 54 -121 54 l-89 0 0 30 0 30 66 0 c72 0 104 12 104 38
0 33 -22 42 -97 42 l-73 0 0 35 0 35 89 0 c68 0 93 4 105 16 19 18 21 45 4 62
-17 17 -259 17 -276 0z"/>
<path d="M2376 574 c-3 -9 -6 -93 -6 -189 0 -186 4 -200 52 -193 23 3 23 3 26
192 2 145 -1 191 -10 198 -21 13 -55 9 -62 -8z"/>
<path d="M2612 578 c-8 -8 -12 -65 -12 -190 0 -165 1 -178 19 -188 11 -5 70
-10 131 -10 107 0 111 1 121 24 8 17 8 29 0 45 -11 19 -20 21 -96 21 l-85 0
-2 113 c-1 61 -2 124 -2 138 -2 48 -45 76 -74 47z"/>
<path d="M3213 503 c-22 -49 -57 -132 -78 -186 -35 -89 -37 -99 -23 -114 24
-23 63 -10 78 27 12 30 13 30 91 30 67 0 78 -3 84 -19 10 -33 42 -54 71 -47
23 6 25 11 21 39 -5 33 -117 295 -143 335 -8 12 -25 22 -38 22 -19 0 -29 -14
-63 -87z m96 -110 l21 -53 -50 0 -49 0 16 38 c20 49 34 74 38 70 2 -1 13 -27
24 -55z"/>
<path d="M3762 578 c-15 -15 -17 -340 -2 -369 12 -21 50 -25 68 -7 7 7 12 34
12 60 l0 48 63 0 c74 0 116 22 140 73 34 71 11 154 -54 189 -40 22 -207 26
-227 6z m196 -90 c7 -7 12 -26 12 -43 0 -44 -16 -55 -77 -55 l-53 0 0 55 0 55
53 0 c29 0 58 -5 65 -12z"/>
<path d="M4187 584 c-4 -4 -7 -90 -7 -190 0 -171 1 -184 19 -194 28 -14 244
-13 259 2 7 7 12 25 12 40 0 38 -29 48 -131 48 l-79 0 0 30 0 30 74 0 c80 0
100 11 94 52 -3 21 -9 23 -83 28 l-80 5 0 30 0 30 89 3 c50 2 96 8 103 14 8 6
13 25 11 42 l-3 31 -136 3 c-74 1 -138 -1 -142 -4z"/>
<path d="M4602 578 c-8 -8 -12 -63 -12 -183 0 -154 2 -174 18 -188 41 -37 72
-13 72 55 0 48 0 48 33 48 29 0 38 -7 75 -60 43 -61 58 -68 93 -50 26 14 24
24 -11 75 l-30 44 31 45 c37 51 41 103 15 154 -29 56 -67 72 -176 72 -61 0
-100 -4 -108 -12z m202 -100 c36 -51 3 -88 -76 -88 l-48 0 0 55 0 55 54 0 c45
0 58 -4 70 -22z"/>
<path d="M5052 578 c-19 -19 -17 -362 3 -378 34 -28 75 13 75 78 0 30 3 32 33
32 27 0 36 -6 51 -34 30 -56 71 -90 99 -82 40 10 40 33 2 83 l-34 45 32 40
c59 73 39 168 -44 210 -41 22 -198 25 -217 6z m189 -88 c12 -7 19 -21 19 -40
0 -40 -35 -62 -92 -58 l-43 3 4 45 c1 25 5 48 8 52 6 12 81 10 104 -2z"/>
<path d="M5435 580 c-3 -5 28 -60 70 -122 74 -112 75 -113 75 -178 0 -67 10
-90 40 -90 34 0 50 33 50 104 0 73 0 72 87 195 58 81 58 101 -2 101 -29 0 -37
-7 -82 -75 l-50 -75 -53 75 c-50 71 -55 75 -91 75 -21 0 -41 -4 -44 -10z"/>
<path d="M1058 428 c-27 -22 -30 -53 -7 -81 11 -15 28 -27 38 -27 30 0 61 30
61 59 0 49 -55 78 -92 49z"/>
<path d="M6100 420 c-25 -25 -25 -41 1 -74 24 -31 52 -33 79 -6 27 27 26 65
-2 84 -30 21 -54 20 -78 -4z"/>
</g>
</svg>
